<svg width="250" height="52" viewBox="0 0 250 52" fill="none" xmlns="http://www.w3.org/2000/svg" class="h-6 w-auto" data-sentry-element="BusinessIcon" data-sentry-source-file="index.tsx"><g clip-path="url(#clip0_23080_1720)"><path d="M209.207 10.5523C204.95 8.8398 200.538 8.75329 196.167 10.1453C191.253 11.7182 187.938 15.037 186.159 19.8756C185.008 23.0214 184.835 26.2557 185.442 29.5096C186.106 33.0801 187.71 36.1945 190.473 38.6049C193.798 41.5148 197.719 42.8065 202.249 42.7338C204.217 42.7902 206.179 42.498 208.045 41.8706C212.007 40.516 215.138 38.0937 217.103 34.3581C219.495 29.8085 219.8 25.0288 218.192 20.1725C216.683 15.6229 213.658 12.3395 209.207 10.5523ZM212.383 28.6406C211.575 32.681 209.238 35.4454 205.205 36.4618C201.062 37.5098 196.621 36.6958 193.83 33.086C192.22 31.0059 191.617 28.5836 191.629 26.1771C191.629 22.7029 192.568 19.7911 195.092 17.5537C197.012 15.853 199.305 15.1117 201.847 15.0822C205.911 15.037 209.191 16.5293 211.247 20.143C212.752 22.8012 212.97 25.7013 212.383 28.6504V28.6406Z" fill="var(--icon-color, white)"></path><path d="M86.7526 9.21924H85.8643C81.4337 9.21924 77.1847 10.98 74.0518 14.1141C70.919 17.2482 69.1589 21.499 69.1589 25.9313V26.065C69.1589 30.4973 70.919 34.7481 74.0518 37.8822C77.1847 41.0163 81.4337 42.777 85.8643 42.777H86.7526C91.1831 42.777 95.4322 41.0163 98.5651 37.8822C101.698 34.7481 103.458 30.4973 103.458 26.065V25.9313C103.458 21.499 101.698 17.2482 98.5651 14.1141C95.4322 10.98 91.1831 9.21924 86.7526 9.21924ZM96.7758 26.4543C96.7758 29.2101 95.6815 31.8531 93.7336 33.8018C91.7857 35.7505 89.1438 36.8452 86.389 36.8452H86.1296C83.3747 36.8452 80.7325 35.7505 78.7843 33.8019C76.8361 31.8533 75.7414 29.2103 75.7408 26.4543V25.4397C75.7408 24.0749 76.0096 22.7235 76.5316 21.4625C77.0537 20.2016 77.819 19.0559 78.7836 18.0908C79.7483 17.1258 80.8936 16.3602 82.154 15.8379C83.4144 15.3157 84.7653 15.0468 86.1296 15.0468H86.389C89.144 15.0473 91.7859 16.1425 93.7337 18.0915C95.6816 20.0405 96.7758 22.6837 96.7758 25.4397V26.4543Z" fill="var(--icon-color, white)"></path><path d="M165.602 36.9218C165.411 36.7728 165.273 36.5659 165.209 36.3319C162.52 29.0743 159.834 21.8161 157.151 14.5571L155.343 9.49634H144.592L144.697 9.53762L144.528 9.54745V42.5115C146.31 42.5115 148.028 42.4721 149.742 42.5311C150.483 42.5547 150.691 42.362 150.687 41.6031C150.657 33.0347 150.667 24.4644 150.665 15.8961V15.1863L150.862 15.1352C150.954 15.3554 151.058 15.5736 151.135 15.7978C153.826 23.0239 156.512 30.2507 159.193 37.4782L160.999 42.539H171.747L171.626 42.4879H171.759V9.54942H165.602V36.9218Z" fill="var(--icon-color, white)"></path><path d="M249.502 9.57305H243.372V36.9159L243.193 36.9395C243.115 36.7429 243.036 36.5463 242.961 36.3359C240.271 29.0744 237.586 21.8122 234.903 14.5493H234.919L233.113 9.49048H222.361L222.459 9.5298L222.282 9.53963V42.5115H227.418C228.424 42.5115 228.426 42.5115 228.426 41.5284C228.426 32.9588 228.426 24.3891 228.426 15.8194C228.426 15.5933 228.451 15.3672 228.465 15.1411C228.662 15.3128 228.807 15.5352 228.886 15.784C231.602 23.0784 234.314 30.3733 237.022 37.6689L238.754 42.5253H249.504L249.384 42.4761H249.508L249.502 9.57305Z" fill="var(--icon-color, white)"></path><path d="M127.516 11.9757C125.198 10.1511 122.518 9.54357 119.666 9.51998C115.446 9.48458 111.215 9.51015 107.005 9.51015C106.809 9.51015 106.612 9.52783 106.359 9.53963V42.4525H112.805V31.4285C114.633 31.4285 116.374 31.4658 118.111 31.4285C119.652 31.3852 121.221 31.4009 122.726 31.1198C126.167 30.4769 128.832 28.6582 130.391 25.418C131.411 23.2927 131.586 21.0198 131.295 18.7332C130.943 15.9924 129.721 13.7137 127.516 11.9757ZM124.511 22.4472C123.89 24.2816 122.349 25.2175 120.533 25.3767C118.003 25.597 115.452 25.5734 112.815 25.6461V15.4596C112.979 15.4354 113.144 15.4197 113.31 15.4124C115.22 15.4124 117.133 15.377 119.043 15.4124C120.68 15.4518 122.294 15.6838 123.502 16.9559C125.018 18.5602 125.175 20.4831 124.511 22.4472Z" fill="var(--icon-color, white)"></path><path d="M134.314 42.4603H140.654V9.53564H134.314V42.4603Z" fill="var(--icon-color, white)"></path><path d="M175.625 42.486H181.969V9.56128H175.625V42.486Z" fill="var(--icon-color, white)"></path><path d="M27.6629 37.9855L31.004 37.6925L32.1989 51.3689C33.72 51.027 35.2073 50.5486 36.6425 49.9395V37.8085H40.7697V47.7178C42.4942 46.577 44.0775 45.236 45.4865 43.7226L46.0172 37.6591L49.5548 37.9678C51.5707 34.0725 52.5697 29.7306 52.4591 25.3456C52.3484 20.9605 51.1317 16.6746 48.9219 12.886L48.7903 14.392L44.6631 14.0303L45.1937 7.97067C43.8569 6.58147 42.3706 5.34447 40.7619 4.28222V14.2406H36.6347V2.06247C34.8743 1.313 33.0358 0.762345 31.1533 0.420753L32.3463 14.0637L29.0052 14.3566L27.7513 0.0314647C27.3308 0.0118035 26.9062 0 26.4817 0C24.8262 4.44017e-06 23.1745 0.157349 21.5487 0.469906L23.9072 13.8985L21.364 14.3468L19.0253 1.0853C16.8454 1.73668 14.7611 2.67345 12.8266 3.87129L15.4601 13.7019L13.4634 14.2387L11.0146 5.09226C9.12509 6.49278 7.43337 8.1422 5.98527 9.99577L7.26077 13.5014L5.80446 14.0322L4.88665 11.5097C3.41845 13.6953 2.29182 16.092 1.54558 18.6172L1.95829 18.4678L7.2647 33.0387L5.80839 33.5696L1.06407 20.5303C-0.0225105 25.6016 0.430464 30.8821 2.36486 35.6941C4.29926 40.5061 7.62683 44.6301 11.9206 47.5369L9.45605 38.3355L11.4528 37.7987L14.4677 49.0567C16.5333 50.1354 18.7355 50.9291 21.0142 51.4161L18.6892 38.1605L21.2343 37.7122L23.7283 51.8683C24.6462 51.9654 25.5686 52.014 26.4916 52.0138C27.2954 52.0138 28.0933 51.9764 28.8795 51.9037L27.6629 37.9855ZM46.0368 18.1276L50.1542 18.4875L48.804 33.9372L44.6768 33.5774L46.0368 18.1276ZM36.6484 18.279H40.7756V33.7858H36.6484V18.279ZM31.0099 18.1611L32.3601 33.6109L29.019 33.9038L27.6668 18.454L31.0099 18.1611ZM13.481 33.7898L9.4698 18.8099L11.4666 18.2751L15.4778 33.2452L13.481 33.7898ZM21.3817 33.892L18.6892 18.6211L21.2343 18.1729L23.9248 33.4418L21.3817 33.892Z" fill="var(--icon-color, white)"></path></g><defs><clipPath id="clip0_23080_1720"><rect width="249" height="52" fill="var(--icon-color, white)" transform="translate(0.5)"></rect></clipPath></defs></svg>