<svg width="1200" height="400" viewBox="0 0 1200 400" fill="none" xmlns="http://www.w3.org/2000/svg">
<rect width="1200" height="400" fill="#2E5CFF"/>
<g clip-path="url(#clip0_3903_95)">
<g clip-path="url(#clip1_3903_95)">
<path fill-rule="evenodd" clip-rule="evenodd" d="M540.176 248.183V145.235H523.183V248.183H540.176ZM373.362 212.128V248.186H355.688V150.601H393.834C401.341 150.601 407.835 151.93 413.317 154.589C418.799 157.247 422.974 160.933 425.84 165.648C428.706 170.361 430.139 175.735 430.139 181.767C430.139 188.067 428.717 193.495 425.874 198.053C423.03 202.61 418.891 206.096 413.454 208.509C408.017 210.922 401.478 212.128 393.834 212.128H373.362ZM373.361 198.187H393.834C400.158 198.187 404.832 196.735 407.858 193.831C410.883 190.926 412.396 186.949 412.396 181.9C412.396 178.773 411.736 175.902 410.417 173.288C409.098 170.674 407.05 168.574 404.275 166.988C401.5 165.401 398.02 164.608 393.834 164.608H373.361V198.187ZM473.999 249.53C481.051 249.53 487.17 247.944 492.356 244.772C497.543 241.599 501.513 237.22 504.265 231.635C507.017 226.05 508.393 219.727 508.393 212.667V211.26C508.393 204.2 507.017 197.878 504.265 192.292C501.513 186.707 497.532 182.317 492.323 179.122C487.113 175.927 480.96 174.33 473.863 174.33C466.857 174.33 460.76 175.927 455.574 179.122C450.388 182.317 446.419 186.707 443.666 192.292C440.914 197.878 439.537 204.2 439.537 211.26V212.667C439.537 219.727 440.914 226.05 443.666 231.635C446.419 237.22 450.399 241.599 455.608 244.772C460.817 247.944 466.948 249.53 473.999 249.53ZM460.897 229.559C463.809 233.938 468.176 236.127 474 236.127C477.866 236.127 481.108 235.088 483.724 233.01C486.34 230.933 488.274 228.129 489.525 224.599C490.776 221.069 491.401 217.093 491.401 212.669V211.262C491.401 206.882 490.776 202.917 489.525 199.365C488.274 195.812 486.329 192.987 483.69 190.886C481.051 188.786 477.776 187.736 473.863 187.736C469.996 187.736 466.766 188.786 464.173 190.886C461.58 192.987 459.657 195.812 458.406 199.365C457.155 202.917 456.529 206.882 456.529 211.262V212.669C456.529 219.55 457.986 225.18 460.897 229.559ZM579.567 272.07C576.086 275.667 571.116 277.465 564.655 277.465C562.426 277.465 559.72 277.063 556.535 276.259V263.457L559.674 263.592C563.723 263.592 566.805 262.888 568.921 261.48C571.036 260.073 572.708 257.604 573.937 254.074L576.257 247.908L550.325 175.657H568.682L584.036 224.316L598.913 175.657H616.997L587.585 259.168C585.72 264.172 583.047 268.473 579.567 272.07ZM643.252 248.19V195.778C645.982 190.55 650.599 187.936 657.105 187.936C661.382 187.936 664.621 188.964 666.829 191.019C669.037 193.074 670.141 196.537 670.141 201.407V248.19H687.132V199.866L687.063 198.325C688.062 195.152 689.759 192.628 692.147 190.751C694.536 188.874 697.505 187.936 701.055 187.936C705.374 187.936 708.616 188.908 710.778 190.851C712.94 192.795 714.021 196.247 714.021 201.207V248.19H731.012V201.274C731.012 191.935 728.943 185.109 724.8 180.798C720.662 176.486 714.677 174.33 706.856 174.33C701.892 174.33 697.505 175.302 693.681 177.246C689.864 179.189 686.697 181.904 684.198 185.389C682.333 181.636 679.671 178.854 676.214 177.045C672.756 175.235 668.706 174.33 664.066 174.33C659.516 174.33 655.456 175.101 651.885 176.642C648.313 178.184 645.277 180.407 642.775 183.311L642.228 175.67H626.26V248.19H643.252ZM781.491 247.319C778.26 248.793 774.599 249.53 770.502 249.53C765.679 249.53 761.362 248.592 757.538 246.715C753.715 244.839 750.734 242.247 748.601 238.941C746.463 235.634 745.394 231.925 745.394 227.815C745.394 220.085 748.316 214.164 754.162 210.053C760.008 205.943 768.3 203.888 779.033 203.888H789.271V199.196C789.271 195.353 788.202 192.348 786.064 190.181C783.925 188.014 780.764 186.93 776.575 186.93C774.076 186.93 771.868 187.355 769.956 188.204C768.044 189.053 766.568 190.215 765.522 191.689C764.476 193.164 763.953 194.817 763.953 196.649H746.962C746.962 192.761 748.223 189.109 750.745 185.691C753.273 182.273 756.864 179.524 761.53 177.446C766.191 175.369 771.525 174.33 777.533 174.33C783.176 174.33 788.156 175.269 792.479 177.145C796.802 179.022 800.178 181.837 802.613 185.59C805.048 189.343 806.262 193.923 806.262 199.33V231.3C806.262 237.913 807.198 243.163 809.063 247.05V248.19H791.729C790.997 246.626 790.364 244.369 789.818 241.421C787.493 243.878 784.722 245.844 781.491 247.319ZM773.78 236.189C770.189 236.189 767.388 235.261 765.389 233.408C763.384 231.553 762.385 229.151 762.385 226.202C762.385 222.404 763.907 219.455 766.958 217.355C770.003 215.255 774.489 214.205 780.398 214.205H789.271V227.744C787.999 230.067 785.982 232.056 783.234 233.709C780.48 235.362 777.33 236.189 773.78 236.189ZM840.297 198.793V248.19H823.306V175.67H839.477L839.954 183.847C841.819 180.809 844.144 178.463 846.915 176.81C849.693 175.157 852.901 174.33 856.538 174.33C857.497 174.33 858.572 174.419 859.781 174.598C860.984 174.777 861.884 174.978 862.477 175.201L862.337 190.952C860.065 190.594 857.811 190.415 855.585 190.415C847.985 190.415 842.888 193.208 840.297 198.793ZM889.683 248.183V224.657L897.127 217.218L918.622 248.183H938.274L908.046 205.824L935.409 175.663H914.938L894.739 198.116L889.683 204.282V145.235H872.762V248.183H889.683ZM995.854 245.643C991.077 248.234 985.296 249.53 978.52 249.53C971.332 249.53 965.05 248 959.681 244.939C954.318 241.879 950.198 237.689 947.333 232.372C944.468 227.055 943.033 221.09 943.033 214.477V211.729C943.033 204.267 944.486 197.71 947.403 192.058C950.314 186.406 954.318 182.038 959.408 178.955C964.504 175.872 970.24 174.33 976.608 174.33C983.57 174.33 989.416 175.827 994.146 178.821C998.876 181.814 1002.41 186.003 1004.76 191.388C1007.1 196.772 1008.27 203.016 1008.27 210.121V217.158H960.164C960.477 220.866 961.459 224.151 963.098 227.01C964.731 229.87 966.951 232.104 969.752 233.713C972.547 235.322 975.812 236.126 979.543 236.126C987.184 236.126 993.326 233.177 997.969 227.279L1007.05 235.925C1004.36 239.812 1000.63 243.052 995.854 245.643ZM991.484 205.095H960.501C961.273 199.599 963.028 195.333 965.759 192.294C968.485 189.255 972.082 187.736 976.539 187.736C981.542 187.736 985.232 189.244 987.597 192.261C989.962 195.276 991.258 199.13 991.484 203.822V205.095ZM1055.47 247.921C1052.2 248.993 1048.52 249.529 1044.42 249.529C1038.41 249.529 1033.68 247.898 1030.23 244.636C1026.77 241.374 1025.04 236.169 1025.04 229.02V188.001H1013.03V175.669H1025.04V157.975H1042.03V175.669H1055V188.001H1042.03V227.88C1042.03 230.919 1042.67 232.986 1043.94 234.08C1045.22 235.175 1047.13 235.722 1049.67 235.722C1051.49 235.722 1053.43 235.499 1055.47 235.052V247.921Z" fill="white"/>
<path d="M280.767 268.495C280.767 275.76 280.767 279.392 278.391 281.192C276.016 282.993 272.519 282.012 265.524 280.049L153.132 248.51C148.918 247.328 146.811 246.737 145.592 245.129C144.374 243.522 144.374 241.333 144.374 236.957V163.043C144.374 158.667 144.374 156.478 145.592 154.871C146.811 153.263 148.918 152.672 153.132 151.49L265.524 119.951C272.519 117.988 276.016 117.007 278.391 118.808C280.767 120.608 280.767 124.24 280.767 131.505V268.495ZM172.404 238.228L265.466 264.345V212.113L172.404 238.228ZM159.674 226.111L252.717 200L159.674 173.889V226.111ZM172.403 161.772L265.466 187.888V135.655L172.403 161.772Z" fill="white"/>
</g>
</g>
<defs>
<clipPath id="clip0_3903_95">
<rect width="911" height="168" fill="white" transform="translate(144.5 116)"/>
</clipPath>
<clipPath id="clip1_3903_95">
<rect width="911" height="168" fill="white" transform="translate(144.5 116)"/>
</clipPath>
</defs>
</svg>
