<svg width="290" height="84" viewBox="0 0 290 84" fill="none" xmlns="http://www.w3.org/2000/svg">
<mask id="mask0_13_137" style="mask-type:luminance" maskUnits="userSpaceOnUse" x="22" y="16" width="246" height="66">
<path d="M267.855 16.0509H22.9417V81.5514H267.855V16.0509Z" fill="white"/>
</mask>
<g mask="url(#mask0_13_137)">
<path d="M26.6205 19.7358H42.0472C46.3411 19.7358 49.8203 20.8571 52.4811 23.0921C55.1493 25.3309 56.4872 28.5818 56.4872 32.8449C56.4872 37.1118 55.1344 40.4568 52.4362 42.8837C49.7455 45.3031 46.2813 46.5109 42.0472 46.5109H36.2472V62.2991H26.6205V19.7358ZM36.2472 38.7749H38.9678C41.1204 38.7749 42.8843 38.3384 44.2595 37.4655C45.6422 36.585 46.3373 35.1439 46.3373 33.146C46.3373 31.1216 45.6422 29.6693 44.2595 28.7963C42.8843 27.9159 41.1204 27.4719 38.9678 27.4719H36.2472V38.7749Z" fill="#EC6769"/>
<path d="M54.4879 40.9873C54.4879 34.8392 56.5695 29.6316 60.7363 25.3648C64.8994 21.0904 69.9221 18.9532 75.8042 18.9532C81.7125 18.9532 86.7352 21.0829 90.8721 25.3347C95.0053 29.5789 97.0757 34.7978 97.0757 40.9873C97.0757 47.2183 95.0427 52.4559 90.9767 56.7002C86.9108 60.9445 81.8508 63.0666 75.8042 63.0666C69.6156 63.0666 64.5108 60.9671 60.4971 56.7604C56.491 52.5462 54.4879 47.2898 54.4879 40.9873ZM64.892 40.9873C64.892 43.2261 65.2283 45.2693 65.9084 47.113C66.5961 48.9491 67.7919 50.5069 69.496 51.7787C71.2076 53.0542 73.3116 53.6901 75.8042 53.6901C79.3918 53.6901 82.0974 52.4522 83.9211 49.9726C85.7523 47.4967 86.6716 44.5017 86.6716 40.9873C86.6716 37.5182 85.7374 34.5381 83.8763 32.0473C82.0115 29.5488 79.3208 28.2996 75.8042 28.2996C72.3138 28.2996 69.6231 29.5488 67.7321 32.0473C65.8374 34.5381 64.892 37.5182 64.892 40.9873Z" fill="#EC6769"/>
<path d="M135.44 62.2991H122.166L106.589 44.2383V62.2991H96.9627V19.7358H106.589V37.1193L121.089 19.7358H132.779L115.768 39.9037L135.44 62.2991Z" fill="#EC6769"/>
<path d="M155.773 62.2991L138.044 19.7358H148.912L159.57 47.6999L170.228 19.7358H181.095L163.352 62.2991H155.773Z" fill="#EC6769"/>
<path d="M180.149 59.018C177.697 56.3202 176.472 53.0128 176.472 49.0997C176.472 45.179 177.697 41.8565 180.149 39.1361C182.608 36.4195 185.74 35.0574 189.537 35.0574C193.023 35.0574 195.893 36.1561 198.147 38.3535V35.825H207.22V62.2991H198.251V59.304H198.147C195.893 61.8137 193.023 63.0667 189.537 63.0667C185.74 63.0667 182.608 61.7196 180.149 59.018ZM187.862 44.6146C186.685 45.781 186.098 47.2748 186.098 49.0997C186.098 50.917 186.659 52.4033 187.788 53.5546C188.924 54.7098 190.411 55.2855 192.257 55.2855C194.029 55.2855 195.49 54.706 196.637 53.5396C197.781 52.3656 198.356 50.8832 198.356 49.0846C198.356 47.271 197.762 45.781 196.577 44.6146C195.4 43.4406 193.961 42.8536 192.257 42.8536C190.512 42.8536 189.047 43.4406 187.862 44.6146Z" fill="#EC6769"/>
<path d="M217.557 35.825V48.4224C217.557 51.0337 217.95 52.8886 218.738 53.9911C219.523 55.0973 220.854 55.6467 222.73 55.6467C224.613 55.6467 225.947 55.0973 226.736 53.9911C227.52 52.8886 227.917 51.0337 227.917 48.4224V35.825H236.975V50.6348C236.975 55.0409 235.839 58.2166 233.567 60.1619C231.295 62.0996 227.681 63.0667 222.73 63.0667C217.774 63.0667 214.164 62.0996 211.892 60.1619C209.62 58.2166 208.484 55.0409 208.484 50.6348V35.825H217.557Z" fill="#EC6769"/>
<path d="M238.261 62.2991V17.9297H247.319V62.2991H238.261Z" fill="#EC6769"/>
<path d="M250.661 35.825V25.9818H259.719V35.825H265.25V42.7934H259.719V51.2067C259.719 53.6449 260.399 54.864 261.767 54.864C262.115 54.864 262.474 54.8001 262.843 54.6684C263.221 54.5292 263.516 54.3899 263.725 54.247L264.024 54.0513L266.282 61.4261C264.338 62.5173 262.115 63.0666 259.615 63.0666C257.911 63.0666 256.438 62.7656 255.205 62.1636C253.979 61.5616 253.045 60.7564 252.41 59.7405C251.782 58.7283 251.333 57.6635 251.064 56.5497C250.795 55.4284 250.661 54.2319 250.661 52.9677V42.7934H246.864V35.825H250.661Z" fill="#EC6769"/>
</g>
<path d="M1.41615 78.229H61.9979" stroke="#EC6769" stroke-width="10"/>
<path d="M5 20.1033V79.6776" stroke="#EC6769" stroke-width="10"/>
<path d="M288.416 5H227.834" stroke="#EC6769" stroke-width="10"/>
<path d="M284.832 63.1256V3.55138" stroke="#EC6769" stroke-width="10"/>
</svg>
