<?xml version="1.0" encoding="UTF-8"?>
<svg xmlns="http://www.w3.org/2000/svg" xmlns:xlink="http://www.w3.org/1999/xlink" width="32px" height="32px" viewBox="0 0 32 32" version="1.1">
<g id="surface1">
<path style=" stroke:none;fill-rule:nonzero;fill:rgb(92.54902%,40.392157%,41.176471%);fill-opacity:1;" d="M 32 16 C 32 16.261719 31.992188 16.523438 31.980469 16.785156 C 31.96875 17.046875 31.949219 17.308594 31.921875 17.566406 C 31.898438 17.828125 31.867188 18.089844 31.828125 18.347656 C 31.789062 18.605469 31.742188 18.863281 31.691406 19.121094 C 31.640625 19.378906 31.585938 19.632812 31.519531 19.886719 C 31.457031 20.140625 31.386719 20.394531 31.3125 20.644531 C 31.234375 20.894531 31.152344 21.144531 31.066406 21.390625 C 30.976562 21.636719 30.882812 21.882812 30.78125 22.121094 C 30.683594 22.363281 30.574219 22.605469 30.464844 22.839844 C 30.351562 23.078125 30.234375 23.3125 30.109375 23.542969 C 29.988281 23.773438 29.859375 24 29.722656 24.226562 C 29.589844 24.449219 29.449219 24.671875 29.304688 24.890625 C 29.15625 25.105469 29.007812 25.320312 28.851562 25.53125 C 28.695312 25.742188 28.535156 25.949219 28.367188 26.148438 C 28.203125 26.351562 28.03125 26.550781 27.855469 26.746094 C 27.679688 26.9375 27.5 27.128906 27.3125 27.3125 C 27.128906 27.5 26.9375 27.679688 26.746094 27.855469 C 26.550781 28.03125 26.351562 28.203125 26.148438 28.367188 C 25.949219 28.535156 25.742188 28.695312 25.53125 28.851562 C 25.320312 29.007812 25.105469 29.15625 24.890625 29.304688 C 24.671875 29.449219 24.449219 29.589844 24.226562 29.722656 C 24 29.859375 23.773438 29.988281 23.542969 30.109375 C 23.3125 30.234375 23.078125 30.351562 22.839844 30.464844 C 22.605469 30.574219 22.363281 30.683594 22.121094 30.78125 C 21.882812 30.882812 21.636719 30.976562 21.390625 31.066406 C 21.144531 31.152344 20.894531 31.234375 20.644531 31.3125 C 20.394531 31.386719 20.140625 31.457031 19.886719 31.519531 C 19.632812 31.585938 19.378906 31.640625 19.121094 31.691406 C 18.863281 31.742188 18.605469 31.789062 18.347656 31.828125 C 18.089844 31.867188 17.828125 31.898438 17.566406 31.921875 C 17.308594 31.949219 17.046875 31.96875 16.785156 31.980469 C 16.523438 31.992188 16.261719 32 16 32 C 15.738281 32 15.476562 31.992188 15.214844 31.980469 C 14.953125 31.96875 14.691406 31.949219 14.433594 31.921875 C 14.171875 31.898438 13.910156 31.867188 13.652344 31.828125 C 13.394531 31.789062 13.136719 31.742188 12.878906 31.691406 C 12.621094 31.640625 12.367188 31.585938 12.113281 31.519531 C 11.859375 31.457031 11.605469 31.386719 11.355469 31.3125 C 11.105469 31.234375 10.855469 31.152344 10.609375 31.066406 C 10.363281 30.976562 10.117188 30.882812 9.878906 30.78125 C 9.636719 30.683594 9.394531 30.574219 9.160156 30.464844 C 8.921875 30.351562 8.6875 30.234375 8.457031 30.109375 C 8.226562 29.988281 8 29.859375 7.773438 29.722656 C 7.550781 29.589844 7.328125 29.449219 7.109375 29.304688 C 6.894531 29.15625 6.679688 29.007812 6.46875 28.851562 C 6.257812 28.695312 6.050781 28.535156 5.851562 28.367188 C 5.648438 28.203125 5.449219 28.03125 5.253906 27.855469 C 5.0625 27.679688 4.871094 27.5 4.6875 27.3125 C 4.5 27.128906 4.320312 26.9375 4.144531 26.746094 C 3.96875 26.550781 3.796875 26.351562 3.632812 26.148438 C 3.464844 25.949219 3.304688 25.742188 3.148438 25.53125 C 2.992188 25.320312 2.84375 25.105469 2.695312 24.890625 C 2.550781 24.671875 2.410156 24.449219 2.277344 24.226562 C 2.140625 24 2.011719 23.773438 1.890625 23.542969 C 1.765625 23.3125 1.648438 23.078125 1.535156 22.839844 C 1.425781 22.605469 1.316406 22.363281 1.21875 22.121094 C 1.117188 21.882812 1.023438 21.636719 0.933594 21.390625 C 0.847656 21.144531 0.765625 20.894531 0.6875 20.644531 C 0.613281 20.394531 0.542969 20.140625 0.480469 19.886719 C 0.414062 19.632812 0.359375 19.378906 0.308594 19.121094 C 0.257812 18.863281 0.210938 18.605469 0.171875 18.347656 C 0.132812 18.089844 0.101562 17.828125 0.078125 17.566406 C 0.0507812 17.308594 0.03125 17.046875 0.0195312 16.785156 C 0.0078125 16.523438 0 16.261719 0 16 C 0 15.738281 0.0078125 15.476562 0.0195312 15.214844 C 0.03125 14.953125 0.0507812 14.691406 0.078125 14.433594 C 0.101562 14.171875 0.132812 13.910156 0.171875 13.652344 C 0.210938 13.394531 0.257812 13.136719 0.308594 12.878906 C 0.359375 12.621094 0.414062 12.367188 0.480469 12.113281 C 0.542969 11.859375 0.613281 11.605469 0.6875 11.355469 C 0.765625 11.105469 0.847656 10.855469 0.933594 10.609375 C 1.023438 10.363281 1.117188 10.117188 1.21875 9.878906 C 1.316406 9.636719 1.425781 9.394531 1.535156 9.160156 C 1.648438 8.921875 1.765625 8.6875 1.890625 8.457031 C 2.011719 8.226562 2.140625 8 2.277344 7.773438 C 2.410156 7.550781 2.550781 7.328125 2.695312 7.109375 C 2.84375 6.894531 2.992188 6.679688 3.148438 6.46875 C 3.304688 6.257812 3.464844 6.050781 3.632812 5.851562 C 3.796875 5.648438 3.96875 5.449219 4.144531 5.253906 C 4.320312 5.0625 4.5 4.871094 4.6875 4.6875 C 4.871094 4.5 5.0625 4.320312 5.253906 4.144531 C 5.449219 3.96875 5.648438 3.796875 5.851562 3.632812 C 6.050781 3.464844 6.257812 3.304688 6.46875 3.148438 C 6.679688 2.992188 6.894531 2.84375 7.109375 2.695312 C 7.328125 2.550781 7.550781 2.410156 7.773438 2.277344 C 8 2.140625 8.226562 2.011719 8.457031 1.890625 C 8.6875 1.765625 8.921875 1.648438 9.160156 1.535156 C 9.394531 1.425781 9.636719 1.316406 9.878906 1.21875 C 10.117188 1.117188 10.363281 1.023438 10.609375 0.933594 C 10.855469 0.847656 11.105469 0.765625 11.355469 0.6875 C 11.605469 0.613281 11.859375 0.542969 12.113281 0.480469 C 12.367188 0.414062 12.621094 0.359375 12.878906 0.308594 C 13.136719 0.257812 13.394531 0.210938 13.652344 0.171875 C 13.910156 0.132812 14.171875 0.101562 14.433594 0.078125 C 14.691406 0.0507812 14.953125 0.03125 15.214844 0.0195312 C 15.476562 0.0078125 15.738281 0 16 0 C 16.261719 0 16.523438 0.0078125 16.785156 0.0195312 C 17.046875 0.03125 17.308594 0.0507812 17.566406 0.078125 C 17.828125 0.101562 18.089844 0.132812 18.347656 0.171875 C 18.605469 0.210938 18.863281 0.257812 19.121094 0.308594 C 19.378906 0.359375 19.632812 0.414062 19.886719 0.480469 C 20.140625 0.542969 20.394531 0.613281 20.644531 0.6875 C 20.894531 0.765625 21.144531 0.847656 21.390625 0.933594 C 21.636719 1.023438 21.882812 1.117188 22.121094 1.21875 C 22.363281 1.316406 22.605469 1.425781 22.839844 1.535156 C 23.078125 1.648438 23.3125 1.765625 23.542969 1.890625 C 23.773438 2.011719 24 2.140625 24.226562 2.277344 C 24.449219 2.410156 24.671875 2.550781 24.890625 2.695312 C 25.105469 2.84375 25.320312 2.992188 25.53125 3.148438 C 25.742188 3.304688 25.949219 3.464844 26.148438 3.632812 C 26.351562 3.796875 26.550781 3.96875 26.746094 4.144531 C 26.9375 4.320312 27.128906 4.5 27.3125 4.6875 C 27.5 4.871094 27.679688 5.0625 27.855469 5.253906 C 28.03125 5.449219 28.203125 5.648438 28.367188 5.851562 C 28.535156 6.050781 28.695312 6.257812 28.851562 6.46875 C 29.007812 6.679688 29.15625 6.894531 29.304688 7.109375 C 29.449219 7.328125 29.589844 7.550781 29.722656 7.773438 C 29.859375 8 29.988281 8.226562 30.109375 8.457031 C 30.234375 8.6875 30.351562 8.921875 30.464844 9.160156 C 30.574219 9.394531 30.683594 9.636719 30.78125 9.878906 C 30.882812 10.117188 30.976562 10.363281 31.066406 10.609375 C 31.152344 10.855469 31.234375 11.105469 31.3125 11.355469 C 31.386719 11.605469 31.457031 11.859375 31.519531 12.113281 C 31.585938 12.367188 31.640625 12.621094 31.691406 12.878906 C 31.742188 13.136719 31.789062 13.394531 31.828125 13.652344 C 31.867188 13.910156 31.898438 14.171875 31.921875 14.433594 C 31.949219 14.691406 31.96875 14.953125 31.980469 15.214844 C 31.992188 15.476562 32 15.738281 32 16 Z M 32 16 "/>
<path style=" stroke:none;fill-rule:evenodd;fill:rgb(100%,100%,100%);fill-opacity:1;" d="M 16.019531 17.144531 C 18.769531 17.144531 21.070312 16.679688 21.632812 16.058594 C 21.15625 15.53125 19.429688 15.113281 17.238281 15 L 17.238281 16.3125 C 16.84375 16.335938 16.4375 16.34375 16.019531 16.34375 C 15.601562 16.34375 15.191406 16.335938 14.800781 16.3125 L 14.800781 15 C 12.609375 15.113281 10.882812 15.53125 10.40625 16.058594 C 10.96875 16.679688 13.269531 17.144531 16.019531 17.144531 Z M 20.910156 10.960938 L 20.910156 12.769531 L 17.238281 12.769531 L 17.238281 14.023438 C 19.816406 14.160156 21.75 14.710938 21.765625 15.371094 L 21.765625 16.746094 C 21.75 17.40625 19.816406 17.953125 17.238281 18.089844 L 17.238281 21.167969 L 14.800781 21.167969 L 14.800781 18.089844 C 12.222656 17.953125 10.289062 17.40625 10.273438 16.746094 L 10.273438 15.371094 C 10.289062 14.710938 12.222656 14.160156 14.800781 14.023438 L 14.800781 12.769531 L 11.128906 12.769531 L 11.128906 10.960938 Z M 9.6875 8.085938 L 22.574219 8.085938 C 22.878906 8.085938 23.164062 8.246094 23.316406 8.507812 L 27.070312 14.957031 C 27.265625 15.289062 27.207031 15.710938 26.929688 15.984375 L 16.597656 26.070312 C 16.261719 26.398438 15.722656 26.398438 15.390625 26.070312 L 5.066406 15.996094 C 4.785156 15.71875 4.730469 15.285156 4.941406 14.949219 L 8.953125 8.488281 C 9.109375 8.238281 9.386719 8.085938 9.6875 8.085938 Z M 9.6875 8.085938 "/>
</g>
</svg>
